# xmcd
#
# Track frame offsets:
#	150
#	29607
#	51994
#	67484
#	91906
#	112354
#	131104
#	149244
#	166644
#	186550
#
# Disc length: 2726 seconds
#
# Revision: 0
# Processed by: cddbd v1.5.2PL0 Copyright (c) Steve Scherf et al.
# Submitted via: EasyCDDAExtractor 2011.0.0.0
#
DISCID=a90aa40a
DTITLE=Various Artist - 10 Urban Beats With The New Voodoo Flavour
DYEAR=2006
DGENRE=Pop
TTITLE0=Elemental - Romantika (Chokoolade Remix)
TTITLE1=Tram 11 - A vi svi (Remix)
TTITLE2=Elemental - Nema vremena (Shot Remix)
TTITLE3=Edo Maajka - No sikiriki (FRX Remix)
TTITLE4=Nered - Nemoj lajat na pse (Remix-Clean)
TTITLE5=Connect - Nebo (Shallanace Remix)
TTITLE6=Pipschips and Videoclips Feat. Edo Maajka I Nered - Ultraoptimizam (Dash
TTITLE6=beatz Remix)
TTITLE7=Bolesna Braća - Čiča miča (Remix)
TTITLE8=Ivana Kindl - Klik (Tom and Grade Pop Mix) (Bonus Track)
TTITLE9=Edo Maajka - To mora da je ljubav (Yannah Remix) (Bonus Track)
EXTD=
EXTT0=
EXTT1=
EXTT2=
EXTT3=
EXTT4=
EXTT5=
EXTT6=
EXTT7=
EXTT8=
EXTT9=
PLAYORDER=
